<?xml version="1.0" standalone="no"?>
<!DOCTYPE svg PUBLIC "-//W3C//DTD SVG 20010904//EN"
 "http://www.w3.org/TR/2001/REC-SVG-20010904/DTD/svg10.dtd">
<svg version="1.0" xmlns="http://www.w3.org/2000/svg"
 width="512.000000pt" height="512.000000pt" viewBox="0 0 512.000000 512.000000"
 preserveAspectRatio="xMidYMid meet">

<g transform="translate(0.000000,512.000000) scale(0.100000,-0.100000)"
fill="#0054a4" stroke="none">
<path d="M2320 5079 c-226 -19 -497 -82 -703 -163 -338 -132 -617 -315 -878
-575 -374 -375 -600 -804 -706 -1340 -26 -130 -27 -149 -27 -456 0 -307 1
-326 27 -456 64 -327 171 -605 334 -874 195 -320 518 -643 838 -838 820 -499
1840 -499 2660 0 322 196 643 518 841 843 126 207 230 454 289 684 111 437
111 845 0 1282 -59 230 -163 477 -289 684 -198 325 -519 647 -841 843 -464
282 -1012 412 -1545 366z m-661 -628 c43 -31 71 -92 71 -158 l0 -53 800 0 800
0 0 53 c1 112 60 178 166 185 114 8 182 -54 191 -173 l6 -63 141 -4 c130 -3
145 -5 198 -31 61 -30 95 -64 131 -131 l22 -41 0 -1510 c0 -1383 -1 -1513 -17
-1546 -22 -51 -84 -116 -132 -142 l-41 -22 -1465 0 -1465 0 -41 22 c-48 26
-110 91 -132 142 -16 33 -17 163 -17 1546 l0 1510 22 41 c36 67 70 101 131
131 53 26 68 28 198 31 l141 4 5 63 c7 76 30 119 83 151 54 34 153 31 204 -5z"/>
<path d="M1496 4348 c-9 -12 -16 -42 -16 -65 l0 -43 70 0 70 0 0 43 c0 60 -21
87 -70 87 -29 0 -43 -6 -54 -22z"/>
<path d="M3456 4348 c-9 -12 -16 -42 -16 -65 l0 -43 70 0 70 0 0 43 c0 60 -21
87 -70 87 -29 0 -43 -6 -54 -22z"/>
<path d="M1111 4120 c-44 -10 -81 -39 -106 -81 -18 -31 -20 -55 -23 -301 l-3
-268 298 0 c322 0 343 -3 343 -53 -1 -52 3 -52 -327 -57 l-308 -5 -3 -1020
c-2 -722 0 -1035 8 -1072 13 -60 56 -105 117 -122 25 -7 387 -11 1091 -11
1128 0 1091 -2 1137 50 18 20 20 40 25 259 5 217 7 239 27 276 25 47 64 86
113 111 30 16 68 19 272 24 234 5 237 5 262 29 15 14 31 41 37 60 6 24 9 275
7 726 l-3 690 -1159 3 c-836 1 -1163 5 -1173 13 -21 18 -16 66 9 83 20 14 148
16 1175 16 l1153 0 0 253 c-1 263 -6 304 -47 349 -46 51 -61 53 -333 53 l-255
0 -3 -82 c-3 -98 6 -120 53 -129 57 -10 75 -70 31 -99 -48 -32 -153 21 -182
92 -9 20 -14 70 -14 128 l0 95 -922 -2 -923 -3 -3 -79 c-3 -89 10 -121 56
-132 39 -10 52 -23 52 -55 0 -43 -37 -63 -88 -50 -95 26 -131 89 -132 229 l0
92 -112 -1 c-62 -1 -128 -5 -147 -9z m506 -996 c47 -35 53 -57 53 -212 0 -227
-5 -232 -243 -232 l-169 0 -29 29 -29 29 0 170 c0 156 2 171 21 196 30 38 68
45 226 43 126 -2 145 -4 170 -23z m730 6 c48 -31 55 -63 51 -233 l-3 -159 -33
-29 -32 -29 -168 0 c-232 1 -232 0 -232 232 0 231 8 239 250 235 107 -2 151
-6 167 -17z m706 9 c67 -18 77 -48 77 -227 0 -232 0 -231 -232 -232 l-168 0
-32 29 -33 29 -3 153 c-2 83 -1 162 2 174 7 29 52 73 79 78 47 9 274 6 310 -4z
m729 1 c71 -20 78 -40 78 -232 l0 -170 -29 -29 -29 -29 -170 0 c-156 0 -171 2
-195 21 -40 31 -49 78 -45 236 3 134 4 143 27 167 14 15 39 30 55 35 43 13
263 13 308 1z m-2171 -676 c48 -24 59 -65 59 -219 0 -226 -10 -235 -246 -235
l-156 0 -34 34 -34 34 0 161 c0 172 6 197 48 224 38 24 318 25 363 1z m723 6
c14 -5 35 -24 46 -42 18 -29 20 -51 20 -181 0 -232 -8 -240 -252 -235 l-160 3
-29 33 -29 32 0 166 0 166 34 34 34 34 155 0 c86 0 167 -4 181 -10z m762 -24
l34 -34 0 -166 0 -166 -29 -32 -29 -33 -160 -3 c-247 -5 -255 3 -250 248 4
221 1 218 242 219 l158 1 34 -34z m735 -15 l29 -29 0 -170 c0 -155 -2 -171
-20 -195 -29 -37 -77 -47 -215 -46 -140 0 -181 11 -212 58 -21 31 -23 45 -23
173 0 232 6 238 243 238 l169 0 29 -29z m-2199 -650 l33 -29 3 -152 c4 -165
-3 -196 -46 -230 -22 -18 -41 -20 -194 -20 l-170 0 -29 29 -29 29 0 172 0 172
29 29 29 29 171 0 171 0 32 -29z m732 2 c36 -36 38 -48 34 -222 l-3 -153 -33
-29 -32 -29 -168 0 c-232 1 -232 0 -232 230 0 158 8 196 47 219 10 6 92 11
189 11 l171 0 27 -27z m717 17 c40 -22 49 -60 49 -220 0 -230 0 -229 -232
-230 l-168 0 -30 28 c-40 36 -49 83 -21 111 27 27 46 27 77 -4 24 -24 30 -25
144 -25 l120 0 0 120 0 120 -125 0 -125 0 0 -42 c0 -48 -22 -78 -56 -78 -34 0
-54 36 -54 100 0 55 15 90 50 117 19 16 342 18 371 3z"/>
<path d="M1310 2910 l0 -120 125 0 125 0 0 120 0 120 -125 0 -125 0 0 -120z"/>
<path d="M2040 2910 l0 -120 125 0 125 0 0 120 0 120 -125 0 -125 0 0 -120z"/>
<path d="M2770 2910 l0 -120 125 0 125 0 0 120 0 120 -125 0 -125 0 0 -120z"/>
<path d="M3500 2910 l0 -120 125 0 125 0 0 120 0 120 -125 0 -125 0 0 -120z"/>
<path d="M1310 2245 l0 -126 123 3 122 3 3 123 3 122 -126 0 -125 0 0 -125z"/>
<path d="M2040 2245 l0 -125 125 0 125 0 0 125 0 125 -125 0 -125 0 0 -125z"/>
<path d="M2770 2245 l0 -125 125 0 125 0 0 125 0 125 -125 0 -125 0 0 -125z"/>
<path d="M3500 2230 l0 -120 125 0 125 0 0 120 0 120 -125 0 -125 0 0 -120z"/>
<path d="M1310 1580 l0 -120 125 0 125 0 0 120 0 120 -125 0 -125 0 0 -120z"/>
<path d="M2040 1580 l0 -120 125 0 125 0 0 120 0 120 -125 0 -125 0 0 -120z"/>
<path d="M3555 1725 c-80 -29 -87 -58 -83 -328 l3 -187 265 265 265 265 -205
0 c-150 -1 -216 -5 -245 -15z"/>
<path d="M3775 1360 c-197 -197 -304 -298 -335 -313 l-45 -22 -1137 -3 c-1224
-3 -1151 -5 -1260 42 -15 7 -16 4 -8 -26 13 -45 39 -77 80 -100 34 -18 87 -18
1470 -16 l1435 3 33 23 c65 47 67 54 70 395 2 169 -1 307 -5 307 -4 0 -139
-131 -298 -290z"/>
</g>
</svg>
