<?xml version="1.0" standalone="no"?>
<!DOCTYPE svg PUBLIC "-//W3C//DTD SVG 20010904//EN"
 "http://www.w3.org/TR/2001/REC-SVG-20010904/DTD/svg10.dtd">
<svg version="1.0" xmlns="http://www.w3.org/2000/svg"
 width="512.000000pt" height="512.000000pt" viewBox="0 0 512.000000 512.000000"
 preserveAspectRatio="xMidYMid meet">

<g transform="translate(0.000000,512.000000) scale(0.100000,-0.100000)"
fill="#0054a4" stroke="none">
<path d="M2320 5079 c-226 -19 -497 -82 -703 -163 -338 -132 -617 -315 -878
-575 -374 -375 -600 -804 -706 -1340 -26 -130 -27 -149 -27 -456 0 -307 1
-326 27 -456 64 -327 171 -605 334 -874 195 -320 518 -643 838 -838 820 -499
1840 -499 2660 0 322 196 643 518 841 843 126 207 230 454 289 684 111 437
111 845 0 1282 -59 230 -163 477 -289 684 -198 325 -519 647 -841 843 -464
282 -1012 412 -1545 366z m974 -870 l26 -20 0 -181 0 -181 -27 -23 c-28 -24
-29 -24 -295 -24 l-268 0 0 -70 0 -70 229 0 c126 0 236 -3 245 -6 9 -3 80
-102 158 -220 l143 -214 236 0 c240 0 290 -6 306 -38 4 -9 10 -138 13 -287 l5
-270 68 -3 67 -3 0 199 c0 266 -10 252 183 252 l142 0 98 -94 97 -94 0 -628 0
-628 -93 -93 -93 -93 -147 0 c-203 0 -187 -27 -187 312 l0 268 -70 0 -69 0 -3
-346 -3 -346 -24 -19 c-23 -18 -55 -19 -1125 -19 l-1101 1 -26 22 c-14 12 -49
60 -79 107 -29 47 -56 87 -60 90 -4 3 -31 43 -60 90 -90 142 -61 130 -297 130
-199 0 -236 5 -255 34 -4 6 -8 118 -8 249 l0 237 -69 0 -70 0 -3 -240 c-3
-214 -5 -241 -21 -257 -15 -16 -40 -18 -184 -21 -91 -2 -176 -1 -189 2 -55 14
-54 10 -54 371 l0 333 -75 111 -75 110 0 141 c0 112 3 148 17 173 20 39 84
137 100 155 7 7 20 26 30 42 9 16 30 34 46 40 39 13 316 13 355 -1 47 -16 52
-46 52 -291 l0 -219 68 3 67 3 3 236 c2 225 3 237 23 255 19 17 42 19 238 22
l217 3 142 214 c78 117 149 216 158 219 9 3 119 6 245 6 l229 0 0 70 0 70
-267 0 c-267 0 -268 0 -295 24 l-28 23 0 181 0 181 26 20 c26 21 33 21 794 21
761 0 768 0 794 -21z"/>
<path d="M1840 4005 l0 -65 660 0 660 0 0 65 0 65 -660 0 -660 0 0 -65z"/>
<path d="M2430 3710 l0 -70 70 0 70 0 0 70 0 70 -70 0 -70 0 0 -70z"/>
<path d="M1837 3423 c-103 -159 -156 -239 -166 -250 -5 -6 -24 -34 -41 -62
-18 -28 -40 -56 -50 -61 -11 -6 -105 -10 -214 -10 l-196 0 0 -585 0 -585 190
0 c111 0 199 -4 212 -11 14 -6 82 -98 163 -220 l139 -209 868 0 868 0 0 805 0
805 -86 0 c-47 0 -94 4 -104 10 -10 5 -32 33 -50 61 -17 28 -36 56 -41 62 -10
11 -63 91 -166 250 l-38 57 -625 0 -625 0 -38 -57z m1010 -168 c19 -14 21 -23
19 -83 -2 -37 -15 -112 -29 -167 -14 -55 -29 -120 -32 -144 -4 -24 -17 -87
-31 -140 -13 -52 -24 -101 -24 -108 0 -10 44 -13 194 -13 190 0 195 -1 210
-22 9 -12 16 -37 16 -55 0 -29 -19 -49 -207 -220 -115 -103 -255 -233 -313
-288 -58 -56 -174 -163 -257 -238 -131 -117 -157 -137 -186 -137 -18 0 -43 7
-55 16 -20 14 -23 23 -21 72 2 32 15 107 31 167 15 61 30 127 33 148 3 21 16
83 30 137 14 54 25 103 25 109 0 6 -74 11 -191 13 -187 3 -191 4 -210 27 -19
23 -24 56 -13 84 3 9 67 71 142 139 75 67 180 164 232 214 136 131 521 478
545 492 28 16 67 15 92 -3z m-1377 -425 l0 -80 -80 0 -80 0 0 80 0 80 80 0 80
0 0 -80z m-2 -527 l-3 -298 -75 0 -75 0 -3 298 -2 297 80 0 80 0 -2 -297z"/>
<path d="M2535 2848 c-60 -55 -175 -162 -254 -237 -79 -75 -151 -139 -160
-143 -9 -4 48 -7 126 -7 l142 -1 21 -27 c18 -23 21 -35 15 -73 -4 -25 -9 -57
-11 -72 -2 -15 -17 -83 -35 -150 -17 -68 -31 -132 -32 -143 0 -11 -5 -26 -10
-32 -5 -7 -6 -13 -1 -13 5 0 74 61 154 135 80 74 200 186 267 248 l122 112
-135 5 c-128 5 -137 6 -155 29 -27 34 -27 36 33 296 33 141 39 175 29 174 -3
0 -55 -45 -116 -101z"/>
<path d="M533 3018 c-11 -13 -37 -48 -57 -78 -35 -53 -36 -57 -36 -149 l0 -94
52 -81 c28 -45 54 -83 58 -86 28 -20 31 -61 30 -355 l0 -305 70 0 70 0 0 585
0 585 -83 0 c-74 0 -86 -3 -104 -22z"/>
<path d="M3770 2235 l0 -805 65 0 65 0 0 805 0 805 -65 0 -65 0 0 -805z"/>
<path d="M4360 2235 l0 -665 48 0 c44 0 51 4 100 53 l52 53 0 560 0 560 -53
52 c-48 48 -56 52 -100 52 l-47 0 0 -665z"/>
<path d="M880 2455 l0 -65 70 0 70 0 0 65 0 65 -70 0 -70 0 0 -65z"/>
<path d="M4067 2443 c-4 -3 -7 -69 -7 -145 l0 -138 70 0 70 0 0 145 0 145 -63
0 c-35 0 -67 -3 -70 -7z"/>
</g>
</svg>
