<?xml version="1.0" standalone="no"?>
<!DOCTYPE svg PUBLIC "-//W3C//DTD SVG 20010904//EN"
 "http://www.w3.org/TR/2001/REC-SVG-20010904/DTD/svg10.dtd">
<svg version="1.0" xmlns="http://www.w3.org/2000/svg"
 width="512.000000pt" height="512.000000pt" viewBox="0 0 512.000000 512.000000"
 preserveAspectRatio="xMidYMid meet">

<g transform="translate(0.000000,512.000000) scale(0.100000,-0.100000)"
fill="#0054a4" stroke="none">
<path d="M2320 5079 c-226 -19 -497 -82 -703 -163 -338 -132 -617 -315 -878
-575 -374 -375 -600 -804 -706 -1340 -26 -130 -27 -149 -27 -456 0 -307 1
-326 27 -456 64 -327 171 -605 334 -874 195 -320 518 -643 838 -838 820 -499
1840 -499 2660 0 322 196 643 518 841 843 126 207 230 454 289 684 111 437
111 845 0 1282 -59 230 -163 477 -289 684 -198 325 -519 647 -841 843 -464
282 -1012 412 -1545 366z m-1005 -734 c157 -41 298 -187 334 -346 48 -206 -64
-432 -257 -524 l-62 -29 0 -291 c0 -166 4 -306 10 -327 6 -20 26 -50 46 -67
l35 -31 479 0 480 0 0 359 0 358 -67 33 c-132 65 -228 195 -254 344 -24 141
26 292 132 399 159 159 399 182 588 56 75 -50 120 -104 163 -195 32 -66 33
-74 33 -190 0 -119 0 -121 -38 -198 -48 -97 -122 -173 -211 -216 l-66 -33 0
-358 0 -359 465 0 464 0 35 31 c20 17 40 47 46 67 6 21 10 161 10 327 l0 291
-66 32 c-193 96 -301 316 -253 521 36 159 177 305 334 346 109 28 238 14 337
-36 58 -30 153 -122 188 -184 75 -131 80 -292 13 -434 -35 -74 -140 -179 -215
-215 l-58 -27 0 -292 c0 -161 -5 -321 -11 -356 -14 -90 -53 -167 -118 -232
-69 -68 -147 -106 -243 -119 -40 -5 -265 -10 -500 -10 l-428 0 0 -359 0 -358
66 -33 c89 -43 163 -119 211 -216 38 -77 38 -79 38 -198 0 -119 -1 -122 -37
-199 -111 -232 -381 -330 -612 -224 -142 66 -241 196 -267 351 -32 192 75 398
254 486 l67 33 0 358 0 359 -480 0 -479 0 -35 -31 c-20 -17 -40 -47 -46 -67
-6 -21 -10 -161 -10 -327 l0 -291 62 -29 c193 -92 305 -318 257 -524 -36 -159
-177 -305 -334 -346 -109 -28 -238 -14 -337 36 -58 30 -153 122 -188 184 -80
140 -79 327 3 464 42 69 132 152 201 185 l54 26 4 332 c4 308 5 337 25 390 12
31 34 76 51 100 l30 43 -30 43 c-17 24 -40 69 -51 100 -19 53 -21 82 -25 390
l-4 332 -56 28 c-71 34 -158 114 -199 183 -82 137 -83 324 -3 464 35 62 130
154 188 184 98 50 228 64 337 36z m2737 -2377 c224 -105 297 -381 153 -577
-36 -48 -110 -111 -147 -123 -6 -2 40 -104 101 -226 61 -122 111 -224 111
-227 0 -3 -70 -5 -155 -5 l-155 0 -105 210 c-84 168 -109 210 -125 210 -19 0
-20 -7 -20 -210 l0 -210 -140 0 -140 0 0 595 0 596 283 -3 282 -3 57 -27z"/>
<path d="M1114 4061 c-137 -62 -137 -264 1 -331 128 -62 276 40 263 180 -13
130 -145 205 -264 151z"/>
<path d="M2445 4066 c-56 -24 -115 -112 -115 -171 0 -30 24 -88 47 -116 55
-64 143 -85 219 -50 78 36 118 120 100 215 -19 99 -154 164 -251 122z"/>
<path d="M3732 4059 c-123 -61 -135 -241 -21 -316 116 -76 271 -5 286 131 17
148 -131 251 -265 185z"/>
<path d="M1112 1439 c-84 -42 -122 -144 -88 -234 56 -146 267 -153 336 -10 77
158 -90 322 -248 244z"/>
<path d="M2465 1453 c-30 -8 -84 -52 -105 -85 -72 -119 19 -279 157 -278 72 1
149 51 172 113 24 63 10 150 -32 196 -44 47 -125 70 -192 54z"/>
<path d="M3710 1614 l0 -106 116 4 116 3 29 33 c43 48 37 112 -15 154 -17 14
-42 18 -133 18 l-113 0 0 -106z"/>
</g>
</svg>
