<?xml version="1.0" standalone="no"?>
<!DOCTYPE svg PUBLIC "-//W3C//DTD SVG 20010904//EN"
 "http://www.w3.org/TR/2001/REC-SVG-20010904/DTD/svg10.dtd">
<svg version="1.0" xmlns="http://www.w3.org/2000/svg"
 width="512.000000pt" height="512.000000pt" viewBox="0 0 512.000000 512.000000"
 preserveAspectRatio="xMidYMid meet">

<g transform="translate(0.000000,512.000000) scale(0.100000,-0.100000)"
fill="#0054a4" stroke="none">
<path d="M2320 5079 c-226 -19 -497 -82 -703 -163 -338 -132 -617 -315 -878
-575 -374 -375 -600 -804 -706 -1340 -26 -130 -27 -149 -27 -456 0 -307 1
-326 27 -456 64 -327 171 -605 334 -874 195 -320 518 -643 838 -838 820 -499
1840 -499 2660 0 322 196 643 518 841 843 126 207 230 454 289 684 111 437
111 845 0 1282 -59 230 -163 477 -289 684 -198 325 -519 647 -841 843 -464
282 -1012 412 -1545 366z m-1152 -563 c36 -19 78 -65 91 -99 6 -16 11 -85 11
-154 0 -109 -3 -130 -20 -158 -29 -47 -86 -68 -146 -55 -75 17 -113 37 -119
62 -5 20 22 145 76 350 17 65 52 83 107 54z m-68 -547 c25 -5 56 -8 69 -7 13
2 26 -3 28 -9 3 -9 -6 -13 -29 -13 -30 0 -68 -8 -125 -25 -21 -7 -23 -4 -23
35 0 36 3 41 17 35 10 -3 38 -11 63 -16z m144 -133 c49 -29 85 -73 153 -186
75 -125 142 -264 218 -450 123 -302 209 -465 352 -664 151 -211 228 -409 193
-501 -9 -23 -12 -24 -31 -14 -21 11 -80 9 -110 -5 -13 -6 -23 6 -46 56 -55
116 -134 171 -250 170 -44 0 -77 -7 -108 -22 -46 -22 -125 -102 -125 -126 0
-8 -4 -14 -8 -14 -5 0 -25 57 -45 128 -40 138 -159 552 -322 1119 -58 199
-105 380 -105 402 0 102 136 165 234 107z m394 -279 c12 -13 53 -99 91 -193
134 -330 216 -483 374 -698 153 -207 229 -399 231 -581 1 -88 -2 -106 -25
-155 -14 -30 -35 -66 -46 -79 l-19 -24 -23 52 -22 52 25 52 c67 132 9 303
-215 637 -138 206 -214 351 -319 608 -38 95 -88 210 -110 255 -22 44 -40 85
-40 89 0 4 17 8 38 8 27 0 45 -7 60 -23z m165 -1411 c18 -7 42 -24 54 -38 27
-28 334 -702 323 -706 -9 -3 -564 -61 -567 -59 -7 8 -56 526 -57 608 -1 100 0
107 26 141 15 19 42 42 60 51 40 20 118 22 161 3z m1957 -8 c123 -39 214 -147
239 -283 23 -122 7 -223 -41 -262 -15 -13 -600 -75 -609 -65 -4 4 -11 49 -17
101 -11 102 -24 129 -83 169 -30 21 -42 23 -98 19 -61 -5 -65 -4 -88 24 -29
35 -42 35 -228 14 -105 -13 -134 -20 -152 -37 -13 -12 -23 -27 -23 -34 0 -12
-11 -16 -93 -29 -49 -8 -104 -57 -117 -104 -6 -24 -6 -66 0 -125 6 -49 9 -91
7 -93 -5 -4 -179 -25 -182 -21 -11 12 -94 202 -90 206 2 3 14 10 26 16 29 15
58 55 61 87 2 14 24 49 50 78 l46 51 223 56 c353 87 981 242 1009 247 33 7
117 -1 160 -15z m-1619 -275 c52 -113 59 -147 30 -163 -21 -10 -25 -5 -76 105
-60 127 -61 131 -42 138 38 16 48 6 88 -80z m869 -123 c0 -63 -7 -66 -142 -75
-102 -7 -106 -7 -118 14 -6 12 -10 36 -8 54 l3 32 100 11 c176 20 165 22 165
-36z m214 -23 c19 -19 25 -39 31 -111 4 -48 5 -89 3 -92 -6 -5 -708 -77 -713
-72 -2 2 -9 43 -15 92 -12 98 -2 131 43 140 86 17 86 17 101 -18 7 -18 26 -43
42 -56 28 -21 34 -22 145 -16 164 8 213 32 225 107 7 40 15 45 82 48 22 1 40
-6 56 -22z m791 -237 c16 -18 17 -40 10 -332 -8 -351 -13 -378 -83 -439 -73
-65 -11 -61 -1111 -71 -553 -5 -1020 -7 -1038 -3 -45 8 -101 59 -113 103 -11
41 -63 513 -56 519 6 6 43 10 856 94 786 80 1185 121 1335 138 140 15 180 13
200 -9z"/>
<path d="M1685 2050 c-37 -15 -67 -57 -72 -102 -6 -59 26 -108 84 -126 37 -12
46 -11 86 6 31 14 48 30 60 55 21 43 21 58 3 102 -25 59 -101 90 -161 65z m85
-89 c15 -29 13 -39 -15 -57 -24 -16 -27 -16 -45 1 -23 20 -26 45 -8 63 18 18
56 14 68 -7z"/>
</g>
</svg>
